<mxfile host="app.diagrams.net" modified="2023-02-04T13:00:20.073Z" agent="5.0 (X11; Linux x86_64) AppleWebKit/537.36 (KHTML, like Gecko) Chrome/109.0.0.0 Safari/537.36" etag="tc6M_J4naUzJw2sOyHlA" version="20.8.16" type="github">
  <diagram id="C5RBs43oDa-KdzZeNtuy" name="Page-1">
    <mxGraphModel dx="814" dy="463" grid="1" gridSize="10" guides="1" tooltips="1" connect="1" arrows="1" fold="1" page="1" pageScale="1" pageWidth="827" pageHeight="1169" math="0" shadow="0">
      <root>
        <mxCell id="WIyWlLk6GJQsqaUBKTNV-0" />
        <mxCell id="WIyWlLk6GJQsqaUBKTNV-1" parent="WIyWlLk6GJQsqaUBKTNV-0" />
        <mxCell id="_PBuYPDhz5i-enJ_vNbh-7" value="" style="edgeStyle=orthogonalEdgeStyle;rounded=0;orthogonalLoop=1;jettySize=auto;html=1;" edge="1" parent="WIyWlLk6GJQsqaUBKTNV-1" source="_PBuYPDhz5i-enJ_vNbh-1" target="_PBuYPDhz5i-enJ_vNbh-6">
          <mxGeometry relative="1" as="geometry" />
        </mxCell>
        <mxCell id="_PBuYPDhz5i-enJ_vNbh-1" value="start" style="ellipse;whiteSpace=wrap;html=1;" vertex="1" parent="WIyWlLk6GJQsqaUBKTNV-1">
          <mxGeometry x="460" y="40" width="94" height="40" as="geometry" />
        </mxCell>
        <mxCell id="_PBuYPDhz5i-enJ_vNbh-4" value="" style="edgeStyle=orthogonalEdgeStyle;rounded=0;orthogonalLoop=1;jettySize=auto;html=1;" edge="1" parent="WIyWlLk6GJQsqaUBKTNV-1" source="_PBuYPDhz5i-enJ_vNbh-2" target="_PBuYPDhz5i-enJ_vNbh-3">
          <mxGeometry relative="1" as="geometry" />
        </mxCell>
        <mxCell id="_PBuYPDhz5i-enJ_vNbh-5" style="edgeStyle=orthogonalEdgeStyle;rounded=0;orthogonalLoop=1;jettySize=auto;html=1;" edge="1" parent="WIyWlLk6GJQsqaUBKTNV-1" source="_PBuYPDhz5i-enJ_vNbh-2" target="_PBuYPDhz5i-enJ_vNbh-1">
          <mxGeometry relative="1" as="geometry">
            <mxPoint x="580" y="60" as="targetPoint" />
          </mxGeometry>
        </mxCell>
        <mxCell id="_PBuYPDhz5i-enJ_vNbh-2" value="void test_function(int ara[ ]" style="rounded=0;whiteSpace=wrap;html=1;" vertex="1" parent="WIyWlLk6GJQsqaUBKTNV-1">
          <mxGeometry x="270" y="10" width="120" height="60" as="geometry" />
        </mxCell>
        <mxCell id="_PBuYPDhz5i-enJ_vNbh-3" value="ara[ 0 ] = 100" style="rounded=0;whiteSpace=wrap;html=1;" vertex="1" parent="WIyWlLk6GJQsqaUBKTNV-1">
          <mxGeometry x="280" y="100" width="100" height="50" as="geometry" />
        </mxCell>
        <mxCell id="_PBuYPDhz5i-enJ_vNbh-9" value="" style="edgeStyle=orthogonalEdgeStyle;rounded=0;orthogonalLoop=1;jettySize=auto;html=1;" edge="1" parent="WIyWlLk6GJQsqaUBKTNV-1" source="_PBuYPDhz5i-enJ_vNbh-6" target="_PBuYPDhz5i-enJ_vNbh-8">
          <mxGeometry relative="1" as="geometry" />
        </mxCell>
        <mxCell id="_PBuYPDhz5i-enJ_vNbh-6" value="int ara [ ] = { 1, 2, 3, 4, 5}:" style="whiteSpace=wrap;html=1;" vertex="1" parent="WIyWlLk6GJQsqaUBKTNV-1">
          <mxGeometry x="450" y="100" width="117" height="50" as="geometry" />
        </mxCell>
        <mxCell id="_PBuYPDhz5i-enJ_vNbh-11" value="" style="edgeStyle=orthogonalEdgeStyle;rounded=0;orthogonalLoop=1;jettySize=auto;html=1;" edge="1" parent="WIyWlLk6GJQsqaUBKTNV-1" source="_PBuYPDhz5i-enJ_vNbh-8" target="_PBuYPDhz5i-enJ_vNbh-10">
          <mxGeometry relative="1" as="geometry" />
        </mxCell>
        <mxCell id="_PBuYPDhz5i-enJ_vNbh-8" value="printf(are[ 0 ]" style="shape=parallelogram;perimeter=parallelogramPerimeter;whiteSpace=wrap;html=1;fixedSize=1;" vertex="1" parent="WIyWlLk6GJQsqaUBKTNV-1">
          <mxGeometry x="447" y="180" width="120" height="40" as="geometry" />
        </mxCell>
        <mxCell id="_PBuYPDhz5i-enJ_vNbh-13" value="" style="edgeStyle=orthogonalEdgeStyle;rounded=0;orthogonalLoop=1;jettySize=auto;html=1;" edge="1" parent="WIyWlLk6GJQsqaUBKTNV-1" source="_PBuYPDhz5i-enJ_vNbh-10" target="_PBuYPDhz5i-enJ_vNbh-12">
          <mxGeometry relative="1" as="geometry" />
        </mxCell>
        <mxCell id="_PBuYPDhz5i-enJ_vNbh-10" value="test_function(ara);" style="whiteSpace=wrap;html=1;" vertex="1" parent="WIyWlLk6GJQsqaUBKTNV-1">
          <mxGeometry x="447" y="250" width="120" height="60" as="geometry" />
        </mxCell>
        <mxCell id="_PBuYPDhz5i-enJ_vNbh-15" value="" style="edgeStyle=orthogonalEdgeStyle;rounded=0;orthogonalLoop=1;jettySize=auto;html=1;" edge="1" parent="WIyWlLk6GJQsqaUBKTNV-1" source="_PBuYPDhz5i-enJ_vNbh-12" target="_PBuYPDhz5i-enJ_vNbh-14">
          <mxGeometry relative="1" as="geometry" />
        </mxCell>
        <mxCell id="_PBuYPDhz5i-enJ_vNbh-12" value="printfara[0]" style="whiteSpace=wrap;html=1;" vertex="1" parent="WIyWlLk6GJQsqaUBKTNV-1">
          <mxGeometry x="447" y="340" width="120" height="60" as="geometry" />
        </mxCell>
        <mxCell id="_PBuYPDhz5i-enJ_vNbh-14" value="end" style="ellipse;whiteSpace=wrap;html=1;" vertex="1" parent="WIyWlLk6GJQsqaUBKTNV-1">
          <mxGeometry x="467" y="430" width="80" height="50" as="geometry" />
        </mxCell>
      </root>
    </mxGraphModel>
  </diagram>
</mxfile>
